<?xml version="1.0" standalone="no"?>
<!DOCTYPE svg PUBLIC "-//W3C//DTD SVG 20010904//EN"
 "http://www.w3.org/TR/2001/REC-SVG-20010904/DTD/svg10.dtd">
<svg version="1.0" xmlns="http://www.w3.org/2000/svg"
 width="748.000000pt" height="453.000000pt" viewBox="0 0 748.000000 453.000000"
 preserveAspectRatio="xMidYMid meet">

<g transform="translate(0.000000,453.000000) scale(0.100000,-0.100000)"
fill="#000000" stroke="none">
<path d="M2500 2834 l0 -1137 148 6 c183 8 284 31 418 97 176 85 317 217 405
377 l40 71 272 6 c150 3 286 7 302 9 24 2 108 -48 429 -252 220 -140 407 -254
415 -255 8 -1 17 6 19 15 2 11 -105 84 -375 254 -208 131 -387 244 -397 252
-18 11 -15 15 40 39 332 150 539 477 521 824 -21 389 -264 693 -643 802 -78
22 -85 22 -836 26 l-758 3 0 -1137z m247 1065 c381 -87 678 -379 775 -764 15
-61 21 -126 25 -277 l6 -198 -507 0 -506 0 0 628 c0 346 3 632 7 635 9 10 104
-2 200 -24z m1261 16 c267 -43 483 -205 602 -450 98 -202 113 -408 44 -613
-75 -228 -262 -422 -484 -506 l-65 -24 -251 159 -251 159 -6 183 c-9 259 -37
387 -118 551 -108 218 -288 391 -515 497 -45 22 -87 39 -93 39 -6 0 -11 5 -11
10 0 7 182 10 528 10 420 0 546 -3 620 -15z m-462 -1375 c-37 -374 -330 -697
-704 -775 -41 -8 -124 -15 -188 -15 l-114 0 0 430 0 430 506 0 507 0 -7 -70z
m270 -86 c117 -75 214 -139 214 -144 0 -13 -100 -20 -304 -20 -164 0 -197 2
-193 14 24 63 48 160 53 217 4 38 9 69 11 69 2 0 101 -61 219 -136z"/>
<path d="M6350 2340 c0 -13 7 -20 20 -20 13 0 20 7 20 20 0 13 -7 20 -20 20
-13 0 -20 -7 -20 -20z"/>
<path d="M2529 1331 c-45 -14 -68 -31 -84 -61 -38 -73 0 -129 108 -161 101
-29 134 -45 142 -68 11 -35 -16 -75 -60 -89 -59 -19 -103 -7 -148 40 -23 24
-44 38 -52 34 -23 -8 -18 -22 21 -65 93 -104 284 -58 284 69 0 50 -36 78 -135
106 -104 30 -125 44 -125 90 0 45 37 69 103 69 45 0 52 -4 83 -39 21 -25 39
-36 49 -33 22 9 19 22 -16 61 -42 48 -106 66 -170 47z"/>
<path d="M3489 1326 c-60 -21 -100 -56 -125 -110 -32 -68 -31 -128 1 -193 79
-158 308 -157 388 2 43 87 28 175 -42 245 -65 65 -143 84 -222 56z m153 -52
c77 -40 110 -151 69 -231 -28 -57 -72 -86 -138 -91 -64 -5 -103 9 -143 54
-126 144 41 356 212 268z"/>
<path d="M5369 1324 c-31 -9 -60 -28 -87 -58 -113 -123 -54 -312 112 -357 125
-34 266 78 266 211 0 112 -110 222 -220 219 -14 0 -46 -7 -71 -15z m113 -34
c44 -13 93 -52 113 -91 23 -44 19 -130 -8 -170 -35 -53 -82 -79 -139 -79 -97
0 -167 59 -176 149 -8 90 33 157 114 186 48 17 50 17 96 5z"/>
<path d="M6549 1326 c-59 -21 -96 -53 -123 -108 -95 -190 104 -384 294 -288
135 69 154 260 34 358 -58 48 -137 63 -205 38z m153 -52 c77 -40 110 -151 69
-231 -28 -57 -72 -86 -138 -91 -64 -5 -103 9 -143 54 -126 144 41 356 212 268z"/>
<path d="M620 1120 l0 -210 25 0 c25 0 25 1 25 90 l0 90 60 0 61 0 57 -90 c44
-69 62 -89 80 -90 12 0 22 3 22 7 0 3 -20 39 -45 79 -25 39 -45 76 -45 82 0 5
16 19 35 31 22 13 42 36 52 58 13 33 14 43 2 78 -9 24 -27 48 -48 62 -31 21
-45 23 -157 23 l-124 0 0 -210z m264 149 c34 -27 37 -88 4 -119 -19 -17 -35
-20 -120 -20 l-98 0 0 80 0 80 94 0 c79 0 97 -3 120 -21z"/>
<path d="M1092 1123 c3 -207 3 -208 26 -211 l22 -3 0 210 0 211 -25 0 -25 0 2
-207z"/>
<path d="M1270 1310 c0 -18 7 -20 75 -20 l75 0 0 -191 0 -190 23 3 c22 3 22 5
25 190 l2 187 73 3 c59 2 72 6 75 21 3 16 -10 17 -172 17 -169 0 -176 -1 -176
-20z"/>
<path d="M1750 1119 l0 -210 23 3 c22 3 22 4 25 211 l2 207 -25 0 -25 0 0
-211z"/>
<path d="M1930 1120 c0 -203 1 -210 20 -210 18 0 20 7 20 58 0 54 3 61 38 95
21 20 40 37 43 37 4 0 43 -43 88 -95 62 -71 89 -95 107 -95 13 0 24 3 24 8 0
4 -41 53 -90 109 -50 56 -90 105 -90 109 0 4 39 48 88 98 l87 91 -30 4 c-27 3
-41 -9 -140 -113 -61 -64 -114 -116 -118 -116 -4 0 -7 52 -7 115 0 108 -1 115
-20 115 -19 0 -20 -7 -20 -210z"/>
<path d="M2870 1120 l0 -210 25 0 c24 0 24 2 27 83 l3 82 108 5 c107 5 109 5
137 37 56 62 45 152 -22 193 -28 17 -50 20 -155 20 l-123 0 0 -210z m263 150
c33 -26 41 -62 23 -104 -18 -43 -65 -58 -164 -54 l-67 3 -3 88 -3 87 94 0 c79
0 98 -3 120 -20z"/>
<path d="M3910 1120 c0 -202 1 -210 20 -210 17 0 19 8 22 88 l3 87 61 3 62 3
57 -91 c46 -73 61 -90 81 -90 13 0 24 2 24 5 0 2 -23 41 -51 85 -28 44 -50 82
-48 84 2 2 19 11 36 20 84 42 83 170 -1 210 -25 12 -63 16 -150 16 l-116 0 0
-210z m265 145 c33 -32 33 -78 0 -111 -24 -23 -30 -25 -122 -22 l-98 3 -3 64
c-2 35 -1 70 2 77 4 11 30 14 101 14 88 0 98 -2 120 -25z"/>
<path d="M4342 1313 c3 -15 16 -19 75 -21 l73 -3 2 -187 c3 -185 3 -187 26
-190 l22 -3 0 190 0 191 75 0 c68 0 75 2 75 20 0 19 -7 20 -176 20 -162 0
-175 -1 -172 -17z"/>
<path d="M4822 1123 c3 -207 3 -208 26 -211 21 -3 22 -1 22 92 l0 96 105 0
c98 0 105 1 105 20 0 19 -7 20 -105 20 l-105 0 0 75 0 75 125 0 c118 0 125 1
125 20 0 19 -7 20 -150 20 l-150 0 2 -207z"/>
<path d="M5790 1121 l0 -211 151 0 c138 0 150 1 147 18 -3 15 -18 17 -125 20
l-123 3 -2 187 c-3 185 -3 187 -25 190 l-23 3 0 -210z"/>
<path d="M6220 1120 l0 -211 23 3 c22 3 22 3 22 208 0 205 0 205 -22 208 l-23
3 0 -211z"/>
<path d="M1805 655 c-48 -47 -23 -95 63 -120 31 -9 63 -22 70 -27 20 -17 14
-46 -13 -64 -35 -23 -88 -11 -114 24 -21 30 -37 26 -26 -7 9 -29 55 -51 105
-51 72 0 117 72 72 113 -10 10 -43 24 -73 33 -30 9 -60 21 -66 26 -20 16 -15
45 9 62 32 23 65 20 94 -9 14 -14 29 -25 34 -25 17 0 11 20 -15 45 -18 19 -35
25 -70 25 -35 0 -52 -6 -70 -25z"/>
<path d="M2224 667 c-2 -7 -3 -67 -2 -132 2 -84 7 -120 16 -123 9 -3 12 28 12
132 0 87 -4 136 -10 136 -6 0 -13 -6 -16 -13z"/>
<path d="M2494 667 c-2 -7 -3 -67 -2 -132 2 -84 7 -120 16 -123 9 -3 12 22 12
103 0 71 4 105 11 103 5 -2 43 -48 82 -103 40 -55 79 -100 87 -100 12 0 15 22
15 128 0 156 -19 180 -23 30 -1 -57 -6 -103 -11 -103 -4 0 -40 47 -81 105 -69
100 -94 122 -106 92z"/>
<path d="M3015 649 c-66 -59 -69 -143 -5 -204 41 -39 114 -46 164 -15 20 12
36 25 36 29 0 19 -14 18 -40 0 -15 -12 -44 -21 -63 -22 -123 -3 -162 155 -51
208 31 14 43 15 74 6 21 -6 43 -18 50 -26 16 -19 30 -19 30 -1 0 25 -63 56
-113 56 -37 0 -53 -6 -82 -31z"/>
<path d="M3467 673 c-4 -3 -7 -64 -7 -135 l0 -128 96 0 c72 0 95 3 92 13 -3 8
-31 13 -81 15 l-77 3 0 44 0 44 68 3 c37 2 67 8 67 13 0 6 -30 11 -67 13 l-68
3 0 44 0 44 77 3 c50 2 78 7 81 16 3 9 -19 12 -85 12 -50 0 -93 -3 -96 -7z"/>
<path d="M4205 655 c-25 -24 -33 -55 -16 -55 5 0 16 11 25 25 22 33 59 42 91
21 44 -29 33 -60 -50 -145 -41 -43 -72 -81 -68 -84 3 -4 44 -7 91 -7 62 0 83
3 80 13 -3 7 -29 14 -62 17 l-57 5 46 45 c59 57 78 93 70 131 -14 61 -103 81
-150 34z"/>
<path d="M4650 653 c-84 -75 -38 -243 66 -243 46 0 92 42 104 95 20 89 -32
175 -105 175 -24 0 -44 -9 -65 -27z m94 -4 c63 -29 73 -141 16 -191 -36 -33
-49 -34 -83 -7 -57 44 -57 144 0 189 30 23 34 24 67 9z"/>
<path d="M5095 654 c-25 -27 -33 -54 -16 -54 5 0 16 11 25 25 22 33 59 42 91
21 43 -28 33 -60 -45 -140 -38 -40 -70 -78 -70 -84 0 -8 27 -12 86 -12 64 0
85 3 82 13 -3 7 -27 13 -63 15 l-58 3 57 58 c71 71 83 115 43 155 -37 37 -98
36 -132 0z"/>
<path d="M5522 668 c3 -8 27 -14 62 -16 l57 -3 -37 -44 -36 -45 27 -10 c14 -5
30 -10 35 -10 19 0 32 -42 21 -66 -22 -48 -106 -51 -118 -4 -6 23 -33 27 -33
5 0 -9 11 -27 25 -40 31 -32 91 -34 129 -4 45 35 34 107 -21 138 -14 8 -12 14
15 49 18 22 32 45 32 51 0 7 -28 11 -81 11 -60 0 -80 -3 -77 -12z"/>
</g>
</svg>
